<svg xmlns="http://www.w3.org/2000/svg" width="32" height="32" viewBox="0 0 32 32">
  <defs>
    <linearGradient id="topoGrad" x1="0" y1="0" x2="1" y2="1">
      <stop offset="0%" stop-color="#006400" />      <!-- Dark green (low) -->
      <stop offset="25%" stop-color="#228B22" />     <!-- Forest green -->
      <stop offset="50%" stop-color="#DAA520" />     <!-- Goldenrod (mid-elevation) -->
      <stop offset="75%" stop-color="#8B4513" />     <!-- SaddleBrown -->
      <stop offset="100%" stop-color="#FFFFFF" />    <!-- Snow cap (high) -->
    </linearGradient>
  </defs>
  <rect width="32" height="32" rx="4" fill="white"/>
  <path fill="url(#topoGrad)" d="M3 3v26h26V3zm19.559 1c-1.098.577-2.226 1.098-2.226 2.12 0 .471.653 1.047.777 1.268a1.158 1.158 0 0 1 .09.177 2.906 2.906 0 0 0-.23.187c-.252.214-.805.507-.966.985a1.637 1.637 0 0 0-.085.52 3.067 3.067 0 0 0 .067.54l.006.03a1.905 1.905 0 0 0-1.2.696 1.421 1.421 0 0 0-.373 1.175l.02.102c.19.923.14 1.28-.206 1.465a3.306 3.306 0 0 0-1.13 1.437 1.971 1.971 0 0 1-.279.423c-.03-.016-.13-.093-.196-.143a2.03 2.03 0 0 0-1.236-.661 1.672 1.672 0 0 0-1.625 1.713c0 .3-.298.828-.515.828-.263 0-.295-.058-.312-.09a2.107 2.107 0 0 0-1.828-1.381 1.941 1.941 0 0 0-1.891 1.982 2.901 2.901 0 0 0 .116.775 1.293 1.293 0 0 1 .061.339.896.896 0 0 1-.161.41 2.473 2.473 0 0 0-.373 1.24 1.563 1.563 0 0 0 1.625 1.49 2.465 2.465 0 0 0 .974-.204 4.9 4.9 0 0 1 .12-.045v.006c0 .116-.236.35-.425.54-.48.48-1.548 1.284-.86 2.658a2.45 2.45 0 0 0 1.672.968 5.06 5.06 0 0 1 .496.135 2.246 2.246 0 0 1-.128.527l-.058.163a4.008 4.008 0 0 0-.295 1.428l-.012.063-.015.134H4V4zM13.5 7.5a1 1 0 1 1 1 1 1 1 0 0 1-1-1zm-5 5a1 1 0 1 1 1-1 1 1 0 0 1-1 1zm16 11a1 1 0 1 1-1-1 1 1 0 0 1 1 1z"/>
</svg>
